<svg xmlns="http://www.w3.org/2000/svg" viewBox="0 0 1024 1024" width="1024" height="1024">
<style>
  @keyframes unflump-breathe {
    0%,100% { transform: scale(0.985); opacity: 0.80; }
    50%     { transform: scale(1.015); opacity: 1.00; }
  }
  #unflump-breathing { transform-box: view-box; transform-origin: 512px 512px;
    animation: unflump-breathe 3.4s ease-in-out infinite; }
  @media (prefers-reduced-motion: reduce) { #unflump-breathing { animation: none; opacity: 1; } }
</style>
<g id="unflump-breathing"><g transform="translate(27.050 27.069) scale(0.94625)"><path d="M 484 75.930 C 477.675 76.355, 470.025 77.194, 467 77.796 C 463.975 78.397, 458.575 79.159, 455 79.487 C 448.599 80.076, 443.283 81.090, 425.500 85.118 C 406.427 89.439, 372.380 99.912, 362.349 104.545 C 360.616 105.345, 358.660 106, 358.003 106 C 357.346 106, 355.614 106.640, 354.154 107.423 C 352.694 108.205, 349.475 109.730, 347 110.811 C 333.742 116.602, 323.750 121.306, 321 123.050 C 320.175 123.573, 318.375 124.464, 317 125.029 C 315.625 125.594, 311.350 127.838, 307.500 130.015 C 303.650 132.193, 299.375 134.544, 298 135.241 C 294.696 136.914, 263.197 157.387, 259.500 160.264 C 258.104 161.350, 242.941 172.830, 237.775 176.712 C 235.424 178.479, 232.150 181.103, 230.500 182.543 C 228.850 183.984, 224.575 187.704, 221 190.810 C 215.002 196.021, 203.471 206.826, 193.615 216.471 C 190.149 219.864, 181.712 229.168, 169.500 243.065 C 163.879 249.462, 143.970 276.590, 137.990 286 C 137.466 286.825, 135.994 289.075, 134.720 291 C 133.446 292.925, 132.066 295.175, 131.654 296 C 131.242 296.825, 129.914 299.147, 128.702 301.161 C 122.145 312.061, 118.998 317.803, 112.576 330.584 C 104.876 345.909, 103.285 349.436, 99.977 358.500 C 98.772 361.800, 97.191 365.850, 96.462 367.500 C 95.733 369.150, 94.853 371.625, 94.506 373 C 94.158 374.375, 93.461 376.400, 92.955 377.500 C 89.771 384.424, 82.006 410.596, 79.499 422.849 C 78.672 426.891, 77.750 430.596, 77.449 431.083 C 77.148 431.570, 76.256 435.913, 75.467 440.734 C 74.679 445.555, 73.611 451.975, 73.095 455 C 70.164 472.187, 68.808 496.146, 69.303 522 C 69.916 553.981, 71.991 573.962, 77.093 597 C 80.869 614.051, 80.699 613.377, 86.528 634.500 C 87.439 637.800, 88.527 640.950, 88.946 641.500 C 89.364 642.050, 90.186 644.300, 90.771 646.500 C 91.356 648.700, 93.019 653.650, 94.467 657.500 C 95.915 661.350, 97.521 665.850, 98.035 667.500 C 98.549 669.150, 99.395 671.400, 99.915 672.500 C 100.435 673.600, 102.076 677.425, 103.563 681 C 107.107 689.523, 116.906 709.429, 122.515 719.500 C 124.965 723.900, 127.418 728.519, 127.966 729.764 C 128.513 731.010, 129.817 733.260, 130.863 734.764 C 131.909 736.269, 135.384 741.550, 138.584 746.500 C 141.785 751.450, 146.675 758.513, 149.452 762.197 C 152.228 765.880, 155.946 770.830, 157.712 773.197 C 159.479 775.563, 161.954 778.689, 163.212 780.142 C 164.471 781.594, 166.400 783.908, 167.500 785.282 C 180.567 801.606, 199.772 821.373, 224.132 843.569 C 233.535 852.138, 265.148 876.134, 272.770 880.488 C 273.722 881.032, 276.973 883.057, 279.995 884.988 C 283.018 886.920, 286.618 889.062, 287.995 889.749 C 289.373 890.436, 291.702 891.786, 293.172 892.749 C 302.036 898.557, 327.934 912.085, 340.750 917.601 C 342.538 918.370, 345.463 919.660, 347.250 920.467 C 350.328 921.857, 354.391 923.373, 363.500 926.532 C 365.700 927.295, 370.650 929.085, 374.500 930.509 C 383.017 933.660, 394.622 936.894, 401.908 938.147 C 404.882 938.659, 407.690 939.308, 408.146 939.590 C 408.603 939.873, 414.044 940.978, 420.238 942.047 C 459.647 948.848, 488.634 950.052, 518.821 946.143 C 527.798 944.981, 535.483 943.819, 535.900 943.562 C 536.317 943.304, 539.773 942.612, 543.579 942.025 C 552.268 940.684, 562.793 938.247, 570.254 935.849 C 573.419 934.832, 576.806 934, 577.781 934 C 578.757 934, 580.443 933.382, 581.527 932.628 C 582.612 931.873, 585.075 930.916, 587 930.500 C 588.925 930.084, 591.388 929.127, 592.473 928.372 C 593.557 927.618, 595.083 927, 595.863 927 C 596.643 927, 599.130 926.149, 601.390 925.108 C 614.446 919.098, 623.685 914.755, 625 914.008 C 625.825 913.540, 629.200 911.717, 632.500 909.958 C 639.117 906.429, 655.445 895.822, 661.137 891.355 C 663.137 889.785, 665.765 887.825, 666.975 887 C 668.186 886.175, 670.263 884.508, 671.592 883.295 C 674.239 880.878, 674.688 880.780, 693.414 878.542 C 700.516 877.693, 708.841 876.293, 711.914 875.430 C 725.215 871.696, 731.672 869.645, 734.154 868.367 C 735.614 867.615, 737.385 867, 738.089 867 C 738.793 867, 741.423 866.072, 743.934 864.937 C 750.900 861.790, 757.334 858.792, 759 857.916 C 759.825 857.483, 763.650 855.496, 767.500 853.501 C 771.350 851.506, 775.850 849.015, 777.500 847.967 C 779.150 846.919, 781.850 845.309, 783.500 844.391 C 785.150 843.472, 786.725 842.445, 787 842.108 C 787.275 841.770, 789.525 840.152, 792 838.512 C 796.349 835.630, 811.299 824.540, 813.585 822.500 C 814.202 821.950, 818.247 818.350, 822.575 814.500 C 841.524 797.645, 867.303 769.308, 877.615 754 C 878.912 752.075, 881.973 747.800, 884.419 744.500 C 886.865 741.200, 888.896 738.167, 888.933 737.761 C 888.970 737.354, 890.799 734.429, 892.999 731.261 C 895.198 728.092, 896.998 725.185, 896.999 724.800 C 896.999 724.415, 898.371 722.069, 900.046 719.587 C 902.951 715.283, 915.138 691.855, 916.361 688.226 C 916.680 687.277, 917.361 685.825, 917.872 685 C 919.095 683.029, 926.230 666.120, 929.055 658.500 C 930.279 655.200, 931.832 651.150, 932.507 649.500 C 934.677 644.193, 938.766 630.652, 942.925 615 C 943.583 612.525, 944.731 607.350, 945.477 603.500 C 946.223 599.650, 947.321 595.233, 947.917 593.685 C 948.513 592.137, 949 589.530, 949 587.893 C 949 586.255, 949.688 581.585, 950.529 577.515 C 952.852 566.265, 955.114 541.599, 955.699 521.134 C 956.184 504.180, 955.625 493.822, 952.457 461 C 951.938 455.615, 949.937 443.452, 947.934 433.500 C 947.380 430.750, 946.352 425.554, 945.648 421.953 C 944.945 418.352, 944.058 414.903, 943.679 414.289 C 943.299 413.675, 942.349 410.096, 941.567 406.336 C 940.785 402.576, 939.191 396.350, 938.025 392.500 C 936.858 388.650, 935.264 383.250, 934.481 380.500 C 933.699 377.750, 932.656 374.600, 932.163 373.500 C 931.671 372.400, 930.273 368.800, 929.059 365.500 C 921.081 343.832, 907.216 314.456, 896.492 296.500 C 895.178 294.300, 893.636 291.476, 893.066 290.224 C 892.496 288.971, 891.570 287.396, 891.009 286.724 C 890.449 286.051, 886.302 279.875, 881.795 273 C 863.277 244.753, 836.288 213.661, 809.041 189.186 C 785.986 168.476, 765.435 152.838, 746.120 141.308 C 742.611 139.214, 738.713 136.825, 737.458 136 C 726.754 128.965, 697.077 113.463, 683 107.554 C 679.425 106.053, 675.082 104.190, 673.349 103.413 C 671.616 102.636, 669.591 101.997, 668.849 101.994 C 668.107 101.990, 666.179 101.299, 664.565 100.457 C 662.952 99.616, 660.027 98.519, 658.065 98.020 C 654.470 97.106, 647.037 94.799, 641.500 92.879 C 630.248 88.977, 598.116 81.549, 583.500 79.470 C 578 78.688, 570.800 77.576, 567.500 77 C 559.930 75.677, 499.329 74.901, 484 75.930 M 490 100.048 C 485.875 100.471, 477.575 101.304, 471.555 101.901 C 465.535 102.498, 456.985 103.692, 452.555 104.555 C 428.805 109.180, 424.074 110.178, 419.500 111.532 C 416.750 112.346, 412.700 113.434, 410.500 113.949 C 405.430 115.137, 397.466 117.729, 393.216 119.574 C 391.410 120.358, 389.160 121.015, 388.216 121.034 C 387.272 121.053, 384.700 121.937, 382.500 123 C 380.300 124.063, 377.908 124.947, 377.185 124.966 C 375.776 125.002, 368.090 127.984, 361.390 131.093 C 359.130 132.142, 356.930 133, 356.502 133 C 355.799 133, 325.608 147.895, 322 150.022 C 321.175 150.508, 315.550 153.705, 309.500 157.125 C 303.450 160.545, 296.367 164.841, 293.760 166.672 C 291.153 168.502, 288.808 170, 288.549 170 C 287.919 170, 272.193 180.706, 268.889 183.384 C 267.453 184.548, 265.264 186.175, 264.024 187 C 259.802 189.810, 237.891 207.791, 228.100 216.482 C 224.050 220.077, 204.182 240.421, 197.809 247.500 C 184.793 261.957, 160.919 294.139, 151.074 310.500 C 145.355 320.004, 131.819 346.460, 126.260 359 C 125.163 361.475, 123.530 365.143, 122.633 367.151 C 121.735 369.159, 120.997 371.184, 120.994 371.651 C 120.990 372.118, 120.402 373.625, 119.687 375 C 118.972 376.375, 117.145 381.550, 115.627 386.500 C 114.110 391.450, 112.393 396.625, 111.812 398 C 111.231 399.375, 110.156 402.750, 109.422 405.500 C 108.689 408.250, 107.133 413.875, 105.964 418 C 104.795 422.125, 103.394 427.525, 102.852 430 C 102.309 432.475, 101.253 436.975, 100.504 440 C 99.756 443.025, 98.854 448.425, 98.499 452 C 98.145 455.575, 97.109 462.100, 96.197 466.500 C 94.815 473.169, 94.538 481.157, 94.532 514.500 C 94.526 547.781, 94.805 555.928, 96.191 563 C 97.107 567.675, 98.145 574.425, 98.497 578 C 98.850 581.575, 99.553 585.850, 100.060 587.500 C 100.568 589.150, 101.636 593.875, 102.435 598 C 104.506 608.689, 106.556 617.200, 108.261 622.185 C 109.072 624.558, 110.757 629.875, 112.005 634 C 116.083 647.483, 119.571 656.739, 127.164 674.227 C 146.978 719.862, 177.193 763.385, 215.915 802.066 C 226.137 812.277, 239.225 824.411, 245 829.030 C 250.775 833.648, 256.400 838.271, 257.500 839.302 C 258.600 840.333, 261.821 842.728, 264.657 844.624 C 267.493 846.520, 270.361 848.730, 271.029 849.536 C 271.698 850.341, 272.617 851, 273.072 851 C 273.527 851, 275.987 852.462, 278.538 854.250 C 281.089 856.038, 283.927 857.950, 284.845 858.500 C 285.763 859.050, 290.336 862.048, 295.007 865.163 C 299.678 868.278, 307.325 873.018, 312 875.697 C 321.822 881.327, 348.493 894.535, 358 898.478 C 361.575 899.961, 365.918 901.810, 367.651 902.587 C 369.384 903.364, 371.551 904, 372.467 904 C 373.382 904, 375.051 904.492, 376.175 905.094 C 378.323 906.243, 388.716 909.443, 395.500 911.044 C 397.700 911.563, 401.750 912.635, 404.500 913.427 C 411.691 915.496, 427.207 918.653, 436.500 919.939 C 440.900 920.548, 447.875 921.524, 452 922.108 C 461.483 923.450, 513.123 922.696, 517.928 921.144 C 519.813 920.536, 525.801 919.581, 531.234 919.024 C 536.667 918.466, 541.929 917.573, 542.927 917.039 C 543.924 916.505, 547.162 915.652, 550.120 915.142 C 557.798 913.820, 568.910 911.051, 573 909.440 C 574.925 908.682, 578.044 907.690, 579.932 907.235 C 581.820 906.780, 583.545 905.866, 583.765 905.204 C 584.345 903.464, 575.840 903.682, 568.500 905.595 C 560.584 907.658, 515.883 908.651, 501 907.095 C 472.411 904.106, 459.392 902.099, 445 898.462 C 427.036 893.924, 411.288 889.148, 405.349 886.438 C 403.616 885.647, 401.760 885, 401.226 885 C 400.312 885, 394.975 882.859, 387 879.294 C 385.075 878.433, 381.700 876.939, 379.500 875.973 C 367.847 870.858, 364.917 869.507, 358.500 866.297 C 338.792 856.436, 311.258 838.436, 298 826.746 C 297.175 826.018, 292.619 822.335, 287.876 818.561 C 267.749 802.546, 236.296 767.393, 218.565 741.097 C 214.404 734.926, 211 729.702, 211 729.488 C 211 729.275, 209.540 726.940, 207.755 724.300 C 203.790 718.435, 203.082 717.151, 195.318 701.757 C 187.237 685.733, 181 672.188, 181 670.663 C 181 669.993, 180.377 668.555, 179.614 667.467 C 178.852 666.379, 177.761 663.916, 177.189 661.994 C 176.617 660.072, 174.812 654.675, 173.178 650 C 163.373 621.947, 156.843 592.649, 153.788 563 C 151.843 544.128, 152.100 496.902, 154.246 478.661 C 155.206 470.500, 156.254 463.398, 156.574 462.880 C 156.895 462.361, 157.787 458.013, 158.557 453.218 C 159.327 448.423, 160.472 442.475, 161.102 440 C 163.988 428.667, 170.731 405.930, 172.076 403 C 172.455 402.175, 173.752 398.800, 174.958 395.500 C 183.219 372.894, 196.519 347.219, 211.400 325.149 C 219.911 312.526, 229.695 298.979, 231.368 297.500 C 231.991 296.950, 234.245 294.329, 236.378 291.676 C 243.554 282.748, 263.040 263.720, 276.497 252.500 C 279.795 249.750, 283.620 246.516, 284.997 245.314 C 288.693 242.085, 308.448 228.445, 319.500 221.490 C 329.307 215.318, 352.658 203.766, 367 197.991 C 370.025 196.773, 373.917 195.181, 375.649 194.453 C 377.381 193.724, 380.531 192.815, 382.649 192.433 C 384.767 192.050, 387.291 191.328, 388.257 190.829 C 389.998 189.930, 402.994 186.601, 416.500 183.595 C 420.350 182.738, 431.600 181.083, 441.500 179.917 C 461.823 177.523, 478.479 177.660, 498 180.382 C 513.097 182.487, 531.546 186.986, 539.784 190.571 C 541.590 191.357, 543.473 192, 543.969 192 C 547.181 192, 554.797 196.903, 558.292 201.222 C 561.794 205.549, 563.094 211.465, 561.821 217.283 C 560.816 221.874, 559.037 224.367, 554.465 227.591 C 551.892 229.406, 549.515 229.762, 536.500 230.285 C 528.250 230.617, 516.325 231.795, 510 232.903 C 496.978 235.183, 483.260 238.554, 481.608 239.880 C 480.999 240.369, 478.925 241.090, 477 241.483 C 475.075 241.875, 472.503 242.827, 471.285 243.598 C 470.067 244.369, 468.492 245.001, 467.785 245.002 C 466.287 245.005, 453.564 251.443, 443.500 257.292 C 417.641 272.319, 393.012 296.246, 374.821 324.011 C 369.153 332.662, 361.079 349.178, 356.005 362.500 C 354.749 365.800, 353.152 369.850, 352.458 371.500 C 351.764 373.150, 350.274 378.100, 349.146 382.500 C 344.284 401.473, 343.720 406.038, 343.265 430.160 C 342.840 452.627, 342.950 454.488, 345.436 467.055 C 348.697 483.537, 351.420 492.495, 357.278 506 C 360.090 512.485, 366.770 525.838, 369.534 530.500 C 370.838 532.700, 372.233 535.175, 372.635 536 C 374.694 540.229, 385.741 554.424, 395.627 565.542 C 402.300 573.047, 417.420 585.823, 429.345 594.035 C 435.891 598.543, 449.013 606.004, 455.500 608.906 C 458.250 610.137, 461.260 611.548, 462.189 612.042 C 463.981 612.996, 475.840 616.815, 485 619.388 C 491.342 621.170, 504.782 622.761, 516.908 623.165 C 523.816 623.395, 525.501 623.153, 526.350 621.806 C 527.100 620.617, 526.993 619.696, 525.959 618.450 C 525.175 617.505, 523.540 612.405, 522.327 607.116 C 519.128 593.175, 519.166 574.922, 522.421 562 C 528.343 538.491, 537.757 522.585, 556.240 504.863 C 573.715 488.107, 599.016 476.570, 623.503 474.191 C 636.884 472.890, 654.889 474.179, 663.254 477.035 C 666.419 478.116, 669.465 479, 670.024 479 C 671.850 479, 688.367 487.155, 694 490.837 C 702.695 496.521, 715.258 508.687, 721.688 517.650 C 729.997 529.232, 736.019 544.274, 739.043 561 C 742.267 578.831, 741.331 594.071, 735.882 612.500 C 733.406 620.874, 732.642 622.706, 726.507 635 C 722.592 642.845, 718.200 650.295, 713.829 656.500 C 708.778 663.672, 689.558 683.440, 679.500 691.807 C 675.100 695.468, 671.275 698.722, 671 699.040 C 670.725 699.358, 663.750 705.031, 655.500 711.647 C 636.961 726.515, 624.538 739.150, 617.252 750.548 C 614.754 754.455, 610 764.733, 610 766.225 C 610 767.067, 609.235 769.498, 608.299 771.628 C 606.972 774.651, 606.591 778.570, 606.561 789.500 C 606.528 801.654, 606.835 804.423, 608.892 810.500 C 612.391 820.838, 614.896 825.974, 618.890 831 C 630.562 845.685, 645.045 853.370, 666 855.997 C 674.137 857.017, 676.635 856.953, 683.415 855.551 C 687.768 854.651, 691.762 853.647, 692.291 853.320 C 692.820 852.993, 697.109 852.335, 701.823 851.857 C 710.277 851, 720.809 848.242, 726.331 845.438 C 727.888 844.647, 729.603 844, 730.142 844 C 730.681 844, 734.946 842.200, 739.620 840 C 744.294 837.800, 748.295 836, 748.510 836 C 749.358 836, 770.776 823.428, 775.240 820.310 C 777.847 818.490, 780.270 817, 780.625 817 C 781.381 817, 798.696 803.232, 804.451 798.054 C 810.668 792.461, 831.095 772.020, 836.028 766.455 C 842.937 758.662, 845.108 755.993, 850.500 748.665 C 853.250 744.928, 857.757 738.861, 860.514 735.185 C 863.272 731.508, 867.260 725.800, 869.377 722.500 C 871.493 719.200, 874.082 715.269, 875.131 713.764 C 876.180 712.260, 877.492 710.010, 878.047 708.764 C 878.602 707.519, 880.796 703.350, 882.922 699.500 C 887.704 690.841, 894.915 676.471, 898.479 668.500 C 899.954 665.200, 901.582 661.600, 902.096 660.500 C 902.610 659.400, 903.451 657.150, 903.965 655.500 C 904.479 653.850, 906.081 649.350, 907.526 645.500 C 910.822 636.712, 914.695 624.048, 918.078 611 C 918.720 608.525, 919.846 604.449, 920.580 601.942 C 921.314 599.435, 922.206 595.385, 922.561 592.942 C 922.917 590.499, 923.809 586.025, 924.543 583 C 925.277 579.975, 926.347 573.450, 926.920 568.500 C 927.492 563.550, 928.475 556.350, 929.103 552.500 C 930.645 543.042, 930.657 484.735, 929.119 475.500 C 928.478 471.650, 927.516 464.450, 926.982 459.500 C 925.608 446.758, 920.438 420.845, 916.908 409 C 915.843 405.425, 914.975 401.825, 914.979 401 C 914.984 400.175, 914.332 398.243, 913.531 396.708 C 912.730 395.172, 911.765 392.247, 911.387 390.208 C 911.008 388.168, 910.135 385.600, 909.447 384.500 C 908.759 383.400, 907.870 380.925, 907.470 379 C 907.071 377.075, 906.127 374.612, 905.372 373.527 C 904.618 372.443, 904 370.917, 904 370.137 C 904 369.357, 903.051 366.645, 901.892 364.110 C 900.733 361.574, 899.201 358.150, 898.488 356.500 C 894.133 346.417, 892.149 342.181, 886.312 330.500 C 882.740 323.350, 878.764 315.700, 877.477 313.500 C 876.190 311.300, 874.432 308.150, 873.571 306.500 C 872.709 304.850, 871.117 302.150, 870.032 300.500 C 868.948 298.850, 867.309 296.150, 866.391 294.500 C 865.472 292.850, 864.431 291.275, 864.076 291 C 863.721 290.725, 861.774 288.025, 859.750 285 C 852.956 274.849, 850.459 271.376, 843.517 262.415 C 827.274 241.449, 815.414 228.643, 794.509 209.500 C 789.103 204.550, 783.965 199.781, 783.090 198.902 C 782.216 198.023, 776.775 193.644, 771 189.171 C 757.014 178.338, 756.507 177.963, 749 172.893 C 745.425 170.478, 742.275 168.254, 742 167.949 C 741.202 167.065, 734.899 163.240, 721.822 155.705 C 717.245 153.068, 712.825 150.501, 712 150.002 C 711.175 149.502, 707.350 147.469, 703.500 145.483 C 699.650 143.497, 695.825 141.502, 695 141.051 C 687.570 136.984, 659.684 125, 657.651 125 C 657.184 125, 655.384 124.353, 653.651 123.562 C 649.127 121.498, 636.425 117.463, 615.500 111.444 C 600.823 107.222, 581.056 103.606, 563.772 101.983 C 557.572 101.400, 548.450 100.499, 543.500 99.979 C 533.073 98.885, 500.951 98.926, 490 100.048 M 444 203.682 C 434.441 204.670, 417.358 207.982, 407 210.854 C 402.875 211.998, 396.800 213.653, 393.500 214.532 C 390.200 215.412, 386.082 216.777, 384.349 217.566 C 382.616 218.355, 380.824 219, 380.368 219 C 377.209 219, 350.433 231.127, 339.848 237.352 C 334.948 240.234, 323.184 247.252, 321.141 248.512 C 309.792 255.512, 285.382 275.448, 273.907 287.088 C 261.220 299.959, 254.894 307.195, 244.698 320.500 C 240.483 326, 236.688 330.950, 236.265 331.500 C 234.079 334.338, 225.821 347.304, 222.570 353 C 220.529 356.575, 218.441 360.175, 217.930 361 C 217.419 361.825, 214.263 368.125, 210.918 375 C 205.499 386.136, 203.367 390.660, 198.432 401.500 C 196.320 406.137, 193.966 412.983, 192.526 418.669 C 191.807 421.512, 190.877 424.390, 190.460 425.065 C 190.043 425.740, 189.109 429.039, 188.386 432.396 C 187.662 435.753, 186.148 442.550, 185.021 447.500 C 183.894 452.450, 182.511 459.200, 181.948 462.500 C 181.385 465.800, 180.154 472.775, 179.212 478 C 177.801 485.831, 177.500 493.912, 177.500 524 C 177.500 554.256, 177.796 562.125, 179.228 570 C 180.179 575.225, 181.377 582.200, 181.891 585.500 C 183.503 595.854, 185.896 607.788, 187.353 612.737 C 188.124 615.357, 189.287 619.525, 189.937 622 C 192.857 633.115, 194.024 636.947, 196.482 643.500 C 197.927 647.350, 199.549 651.940, 200.087 653.699 C 200.626 655.459, 201.723 658.159, 202.527 659.699 C 203.330 661.240, 203.990 662.811, 203.994 663.191 C 204.001 664.009, 211.302 679.977, 213.966 685 C 214.986 686.925, 217.583 691.875, 219.736 696 C 221.888 700.125, 224.966 705.689, 226.575 708.365 C 232.587 718.365, 241.962 732.860, 243.797 734.992 C 244.511 735.822, 249.060 741.675, 253.907 748 C 269.579 768.449, 288.873 788.069, 310.947 806 C 313.317 807.925, 316.002 810.175, 316.913 811 C 317.824 811.825, 321.478 814.491, 325.034 816.923 C 328.591 819.356, 334.970 823.720, 339.210 826.620 C 349.810 833.869, 365.253 842.648, 379.221 849.364 C 385.667 852.464, 391.204 855, 391.526 855 C 391.847 855, 393.998 855.835, 396.305 856.855 C 400.089 858.528, 406.016 860.845, 416 864.553 C 419.203 865.742, 423.532 867.109, 437.500 871.343 C 440.250 872.176, 444.300 873.153, 446.500 873.512 C 448.700 873.872, 452.525 874.773, 455 875.514 C 457.475 876.256, 461.525 877.145, 464 877.491 C 466.475 877.836, 471.650 878.749, 475.500 879.519 C 501.280 884.674, 559.423 884.865, 582 879.869 C 584.475 879.322, 589.875 878.242, 594 877.471 C 598.125 876.699, 604.650 875.122, 608.500 873.965 C 612.350 872.808, 617.413 871.367, 619.750 870.763 C 622.087 870.158, 624 869.166, 624 868.559 C 624 867.952, 622.338 866.565, 620.307 865.477 C 616.593 863.489, 601.348 848.798, 597.358 843.362 C 591.175 834.940, 586.031 822.984, 582.909 809.781 C 581.183 802.477, 580.922 798.824, 581.307 787.281 C 581.890 769.776, 584.315 759.372, 590.926 746 C 594.397 738.980, 595.074 737.949, 602.142 728.954 C 611.679 716.814, 621.565 707.650, 646.500 687.832 C 672.304 667.324, 679.823 660.131, 694.005 642.383 C 702.819 631.352, 709.822 616.384, 713.598 600.500 C 716.234 589.414, 716.255 568.136, 713.639 559 C 709.422 544.271, 702.140 531.282, 693.005 522.195 C 690.199 519.404, 684.198 514.655, 679.669 511.641 C 665.798 502.412, 651.500 498.008, 635.336 497.987 C 609.901 497.954, 585.833 508.671, 568.528 527.734 C 553.370 544.433, 546.964 559.903, 546.265 581.500 C 545.973 590.495, 546.277 594.877, 547.479 599 C 548.361 602.025, 549.470 605.980, 549.945 607.790 C 550.419 609.599, 552.172 613.874, 553.839 617.290 C 557.976 625.765, 560 630.915, 560 632.968 C 560 635.443, 557.427 640.250, 554.762 642.754 C 549.483 647.713, 546.035 648.315, 522.500 648.389 C 502.751 648.450, 499.477 648.217, 490.500 646.104 C 474.899 642.432, 459.562 637.778, 452.500 634.572 C 445.203 631.260, 430.154 623.692, 426.500 621.498 C 424.300 620.176, 421.825 618.776, 421 618.385 C 420.175 617.994, 414.325 613.815, 408 609.099 C 393.646 598.395, 374.159 579.318, 363.500 565.536 C 362.400 564.114, 361.039 562.399, 360.475 561.725 C 354.409 554.476, 340.740 530.114, 334.256 515 C 329.499 503.909, 323.962 486.828, 323.986 483.315 C 323.993 482.113, 323.497 479.863, 322.881 478.315 C 321.535 474.928, 319.468 460.940, 317.850 444.279 C 316.647 431.883, 316.708 430.662, 320.044 401 C 320.632 395.775, 321.762 389.803, 322.556 387.730 C 323.350 385.656, 324 382.727, 324 381.222 C 324 379.716, 325.390 374.662, 327.089 369.992 C 328.788 365.321, 330.773 359.700, 331.500 357.500 C 336.811 341.421, 347.885 320.369, 359.119 305 C 361.330 301.975, 363.885 298.375, 364.797 297 C 365.708 295.625, 366.692 294.275, 366.983 294 C 367.273 293.725, 369.363 291.009, 371.625 287.966 C 379.761 277.021, 400.149 258.193, 415.697 247.266 C 424.027 241.412, 434.749 234.356, 437 233.246 C 438.375 232.569, 440.175 231.567, 441 231.020 C 445.610 227.964, 464.307 220.459, 476 216.970 C 480.125 215.740, 485.525 214.119, 488 213.370 C 491.564 212.290, 504.275 210.195, 508.250 210.031 C 508.663 210.014, 509 209.562, 509 209.026 C 509 206.853, 502.529 204.967, 491.820 204.019 C 481.221 203.081, 451.818 202.874, 444 203.682" fill="#C97458" fill-rule="evenodd"/></g></g></svg>